# xmcd
#
# Track frame offsets: 
#        150
#        26306
#        42271
#        61761
#        78336
#        98286
#        117486
#        132336
#        148453
#        164304
#        184657
#        201672
#
# Disc length: 3134 seconds
#
# Revision: 1
# Processed by: cddbd v1.5.2PL0 Copyright (c) Steve Scherf et al.
# Submitted via: ExactAudioCopyFreeDBPlugin 1.0
#
DISCID=a30c3c0c
DTITLE=Teflon Brothers - T
DYEAR=2009
DGENRE=Rap
TTITLE0=Viimeinen Puritaani (feat. 2Pac)
TTITLE1=Vexi Oli Velkaa
TTITLE2=Pelihimo (feat. Olli PA)
TTITLE3=Malminkartanon PETO
TTITLE4=S‰‰pallo
TTITLE5=Hoodilammas (feat. Juju)
TTITLE6=Hikoilen Ku Raiskaaja
TTITLE7=In Tolu
TTITLE8=Ei Oo Ilmasii Tissei
TTITLE9=Veljee Ei Voi Valita (feat. Wety)
TTITLE10=S‰ Et Ymm‰rr‰ Menn‰ Kotiin
TTITLE11=Ujo Darra
EXTD=
EXTT0=
EXTT1=
EXTT2=
EXTT3=
EXTT4=
EXTT5=
EXTT6=
EXTT7=
EXTT8=
EXTT9=
EXTT10=
EXTT11=
PLAYORDER=
